<svg id="Layer_1" data-name="Layer 1" xmlns="http://www.w3.org/2000/svg" xmlns:xlink="http://www.w3.org/1999/xlink" viewBox="0 0 1366 768"><defs><style>.cls-1{fill:#4747a8;}.cls-12,.cls-2{fill:#fbfaff;}.cls-3{fill:#454aa0;}.cls-4{fill:#464ca7;}.cls-5{fill:#4d3ea5;}.cls-6{fill:#4d41a0;}.cls-7{fill:#fff;}.cls-8{fill:#070707;}.cls-9{fill:url(#linear-gradient);}.cls-10{fill:url(#linear-gradient-2);}.cls-11{fill:url(#linear-gradient-3);}.cls-12{font-size:80px;font-family:Georgia;}</style><linearGradient id="linear-gradient" x1="575.79" y1="181.87" x2="761.37" y2="181.87" gradientUnits="userSpaceOnUse"><stop offset="0" stop-color="#af4168"/><stop offset="0" stop-color="#af4168"/><stop offset="0.47" stop-color="#9b5f9f"/><stop offset="0.81" stop-color="#8f72c1"/><stop offset="1" stop-color="#8a79ce"/></linearGradient><linearGradient id="linear-gradient-2" x1="576.33" y1="255.06" x2="670" y2="255.06" gradientUnits="userSpaceOnUse"><stop offset="0" stop-color="#a7356c"/><stop offset="0.28" stop-color="#8c3b7e"/><stop offset="1" stop-color="#4b48aa"/></linearGradient><linearGradient id="linear-gradient-3" x1="669.11" y1="254.98" x2="761.08" y2="254.98" gradientUnits="userSpaceOnUse"><stop offset="0" stop-color="#2b75d2"/><stop offset="0.42" stop-color="#3999e6"/><stop offset="0.78" stop-color="#42b0f3"/><stop offset="1" stop-color="#45b9f8"/></linearGradient></defs><path class="cls-1" d="M461.87,417.32c-1.83-4.35-3.8-9.05-6.15-14.63,14.29,1.93,27.83,3.44,41.26,5.65,30.18,5,60.15,11,89,21.25,27.93,9.92,54.81,22.17,79.77,38.33,5.12,3.31,10.2,3.58,15.44.41,35.77-21.63,74.38-36.64,114.11-49.12a446.31,446.31,0,0,1,78.34-16.76,46.58,46.58,0,0,1,5.47,0c-1.82,4.8-3.36,9.5-5.46,13.93-.55,1.17-2.77,1.93-4.34,2.17-21.67,3.27-43.71,5-65,9.92-41.29,9.61-80.53,24.95-116.47,47.92-9.15,5.84-18.26,5.92-27.58,0-40.31-25.58-84.16-42.23-130.92-51.3-11.09-2.15-22.27-3.93-33.48-5.22S473.71,418.16,461.87,417.32Z"/><path class="cls-2" d="M872.56,572H836.9c.26-.84.29-1.36.45-1.41,8.65-2.37,9.3-3.1,9.26-12-.06-11.48,0-23-.54-34.45-.34-6.87-4.57-10.57-11.33-10.92-7-.36-13.09,2.2-18.22,6.78-1.11,1-1.54,3.19-1.56,4.84-.14,10.33-.07,20.67-.06,31,0,12.07,0,12.07,10.83,15.14-2.14,2-30.13,2.35-34.22.47C801,566,801,566,801,554c0-8.49.07-17,0-25.49-.14-12.41-7.07-17.78-19-14.17-4,1.21-7.7,3.82-11.14,6.34-1.25.91-1.84,3.41-1.86,5.19-.17,11-.09,22-.08,33,0,8.06,1,9.25,8.76,11.43.52.15,1,.56,1.29,1.74H746.25l-.15-1c1.29-.51,2.93-.68,3.78-1.59,1.9-2,4.76-4.37,4.83-6.66.46-14.32.43-28.66.07-43,0-2-2.5-4.3-4.41-5.65-1.69-1.19-4.19-1.25-6.33-1.81,0-.5-.06-1-.1-1.49l25-6v12.58c3.43-2.67,6.13-5,9.09-7,5.46-3.62,11.27-6.37,18.08-6.26,8.87.15,15.31,3.78,18.21,12.39,4.58-2.94,8.86-6.15,13.54-8.56a32.84,32.84,0,0,1,11.27-3.65c13.31-1.37,21.18,5.67,21.6,19.31.35,11.66.11,23.33.16,35,0,8.76,1.43,10.33,10,11.61a9.67,9.67,0,0,1,1.76.61Z"/><path class="cls-3" d="M665.69,452.63c-61.16-62.7-158.21-90.28-220.84-93.11,2.79,7.19,5.41,14.25,8.36,21.17.39.89,2.45,1.39,3.78,1.51,54,4.7,105.71,17.82,154.43,41.95a248.26,248.26,0,0,1,49.74,32.18,15.68,15.68,0,0,1,4.24,4.92l-16.21-10a407.1,407.1,0,0,0-142.33-55c-17.46-3.2-35.14-5.32-52.76-7.61-3.36-.44-4.81-1.76-6-4.71-3.84-9.88-7.95-19.65-12-29.52,7.12,0,14.23-.63,21.21.1,51.29,5.33,100,19.17,145.29,44.34C627.26,412.54,648,430.79,665.69,452.63Z"/><path class="cls-2" d="M515.08,534c0,8.78-.29,18.08.12,27.35.24,5.48,3.55,7.83,10.28,8.91,1.51.24,3,.74,4.47,1.11l-.26,1.36H488.21l-.45-.76a12,12,0,0,1,3-1.54c6.93-1.29,8.34-2.82,8.35-10q.08-36,0-72c0-8.48-.78-9.37-9.24-11.36-.7-.16-1.34-.57-2-2a15.81,15.81,0,0,1,3.27-.66c14.82.21,29.63.38,44.44.79A38.4,38.4,0,0,1,545,477c14.86,4.28,21.89,12.83,21.57,26-.35,14.57-8.33,24.92-23,27.93C534.48,532.78,525.1,533,515.08,534Zm.07-4.72c11.61.31,23.64,2.42,30.57-9.69,5.65-9.86,7.26-20.75.5-30.7-7.41-10.9-19.22-10.79-31.07-10.63Z"/><path class="cls-4" d="M891.24,360.82C809.42,366,740.82,398.9,682,452.77c9.85-19,59.64-55.38,97.91-71.6s78-25.74,120.07-26.29c-3.95,10.46-7.61,20.57-11.66,30.53a6.74,6.74,0,0,1-4.58,3.46,469.45,469.45,0,0,0-169.46,53.48c-9.51,5.11-18.62,11-27.93,16.45-.92.55-1.87,1-2.81,1.56l-.84-1.25c8-5.8,15.62-12.06,23.91-17.33,40.69-25.86,85-42.92,132.11-52.45,13.67-2.77,27.53-4.59,41.25-7.07a6.42,6.42,0,0,0,4.07-3.2C886.49,373.47,888.55,367.69,891.24,360.82Z"/><path class="cls-5" d="M833.35,331.4c-1,5.33-1.68,10.09-2.9,14.7-.3,1.15-2.22,2.39-3.58,2.67-48.22,9.86-88.27,34.15-122.19,69.19-7.4,7.64-14.26,15.8-20.56,22.82C707.63,397,757.16,343.36,833.35,331.4Z"/><path class="cls-6" d="M507.13,347.28c-.88-5.41-1.69-10.43-2.55-15.74C575.4,342.13,626,381.24,663.2,439.91,621.92,391.05,571.71,357.17,507.13,347.28Z"/><path class="cls-2" d="M685.45,549.42c1.75,3.54,3.27,7.2,5.27,10.58,5.45,9.18,16,13.11,25.34,9.7,6.66-2.42,9.11-8.85,4.64-14.27-2.85-3.46-7-6-11-8.33-5-3-10.51-5-15.42-8.09-8.19-5.1-11.14-11.48-9.16-19.78,1.92-8,7.44-13,15.44-14.52a46.5,46.5,0,0,1,26.48,2.34c1.07.44,2.59,1.56,2.63,2.42a72.11,72.11,0,0,1-.78,15.68c-2.1-3.47-4-7-6.32-10.38-4.15-6-10-8.58-17.28-7.6-4.4.59-8,2.56-9.38,7.06s.26,8.41,4,10.93a118.89,118.89,0,0,0,12.61,7c3.39,1.75,7,3.08,10.36,4.87,6.71,3.57,11.47,8.49,11.05,16.85s-4.55,14.49-11.87,17.68c-12.46,5.45-25,3.92-37.18-1.6-.87-.4-2-1.67-1.95-2.47.37-6,1-12,1.57-18.07Z"/><path class="cls-2" d="M575,572.31c.13-.72.13-1.3.25-1.32,7.81-1.53,8.12-7.21,8-13.58-.23-11.32,0-22.65,0-34,0-8-.45-8.48-8.32-10.32a14.19,14.19,0,0,1-2-.81l-.14-1.45L596.79,505v13.4c4.45-3.92,8.18-7.87,12.56-10.86,4.64-3.17,10.27-4.7,15.61-2.11,2.46,1.19,5.4,4.36,5.48,6.72.1,3-1.85,6.72-4.13,8.82-3.07,2.82-6.54,1.13-9-2s-5.39-6.77-9.89-4.36c-4.92,2.64-10.09,5.9-10.29,12.38-.32,10.31-.1,20.64-.1,31,0,8.27,1.81,12.59,11.4,12.49.81,0,1.63.52,2.33,1.88Z"/><path class="cls-2" d="M637.76,510.93,663,504.5v33.11c0,7,0,14,0,21,.1,8.42,1.87,10.41,10.13,11.74a8.63,8.63,0,0,1,1.78.78c-2.69,2.06-28.89,2.68-35.15.14l3.41-1.11c3.67-1.2,5.88-3.34,5.86-7.59q-.12-20.71.1-41.43c0-4.41-1.78-6.89-6.22-7.41-1.63-.19-3.22-.62-4.83-.94Z"/><polygon class="cls-7" points="663.25 355.96 682.35 355.96 700.85 386.83 675.63 431.01 676.24 391.42 670.89 391.73 671.2 431.01 645.97 387.45 663.25 355.96"/><circle class="cls-8" cx="673.5" cy="388.93" r="4.5"/><polygon class="cls-9" points="575.79 169.33 761.37 169.33 725.29 194.4 614.31 194.4 575.79 169.33"/><polygon class="cls-10" points="576.33 169.69 670 340.43 669.12 294.84 614.31 194.4 576.33 169.69"/><polygon class="cls-11" points="670 340.43 761.08 169.54 725.29 194.4 669.12 294.84 670 340.43"/><text class="cls-12" transform="translate(515.06 642.2)">of stories</text></svg>